<svg xmlns="http://www.w3.org/2000/svg" viewBox="0 0 64 64" fill="none">
  <!-- עין שנייה: soft-sketch dual-gaze eye; coral only on gap between gaze lines -->
  <path d="M7.2 32.6c5.2-12.2 17.8-18.2 25-18.3 7.6-.1 19.2 5.4 24.6 17.8-5 11.8-17.2 18.4-24.8 18.3-8-.1-19.6-5.8-24.8-17.8z" stroke="#0d5c63" stroke-width="3.2" stroke-linecap="round" stroke-linejoin="round" fill="#0d5c63" fill-opacity="0.07"/>
  <path d="M14.2 32.4c3.7-7.4 11.8-10.9 17.9-10.9 6.4 0 13.9 3.3 17.7 10.6-3.5 7.1-11.1 10.9-17.8 10.8-6.5-.1-13.8-3.5-17.8-10.5z" stroke="#0d5c63" stroke-width="2.7" stroke-linecap="round" stroke-linejoin="round" fill="none" opacity="0.9"/>
  <circle cx="32.1" cy="32.1" r="8.3" stroke="#0d5c63" stroke-width="2.9" fill="#0d5c63" fill-opacity="0.1"/>
  <path d="M46.2 22.7c2.1 2.4 3.6 5.3 4.2 8.4" stroke="#e07a5f" stroke-width="4.1" stroke-linecap="round" fill="none" opacity="0.95"/>
</svg>
